<?xml version="1.0" encoding="utf-8"?>
<!-- Generator: Adobe Illustrator 24.0.3, SVG Export Plug-In . SVG Version: 6.00 Build 0)  -->
<svg version="1.1" id="Layer_1" xmlns="http://www.w3.org/2000/svg" xmlns:xlink="http://www.w3.org/1999/xlink" x="0px" y="0px"
	 viewBox="0 0 50 50" style="enable-background:new 0 0 50 50;" xml:space="preserve">
<style type="text/css">
	.st0{fill:#43B17B;}
	.st1{fill:#0BA06E;}
	.st2{fill:#72BF91;}
	.st3{fill:#3CAD7B;}
	.st4{fill:#BDDEC6;}
	.st5{fill:#FFFFFF;}
</style>
<g>
	<path class="st0" d="M26.6,44.9c-0.3,0-0.5,0-0.8,0c-0.2-0.1-0.4-0.1-0.5,0c-0.2,0-0.3,0-0.5,0c-0.2-0.1-0.4-0.1-0.6,0
		c-0.3,0-0.5,0-0.8,0c-0.5-0.1-1.1-0.1-1.6-0.1c-1.3-0.1-2.5-0.5-3.7-0.9c-2.1-0.8-4-1.8-5.7-3.2c-2.1-1.7-3.8-3.8-5.1-6.2
		c-0.9-1.8-1.6-3.7-2-5.7c-0.1-0.6-0.1-1.1-0.2-1.7c-0.1-1.8-0.1-3.7,0.1-5.5C5.5,20,6,18.3,6.7,16.8c0.8-1.8,1.8-3.4,3.1-4.9
		c1.6-1.8,3.5-3.4,5.6-4.5c1.8-1,3.7-1.7,5.7-2.1c0.6-0.1,1.1-0.1,1.7-0.2c1.8-0.1,3.6-0.1,5.4,0.1C30,5.4,31.6,6,33.2,6.7
		c1.8,0.8,3.6,1.9,5.1,3.2c1.6,1.4,3,3,4.1,4.9c1.1,1.9,1.9,3.9,2.4,6.1c0.1,0.7,0.1,1.5,0.2,2.3c0,0.1,0,0.2,0,0.3
		c0,0.1,0,0.2,0,0.2c0,0.1,0,0.1,0,0.2c0,0.2,0,0.3,0,0.5c-0.2,0.2-0.3,0.1-0.5,0c-0.3-0.3-0.7-0.6-1-0.9c-1.2-1.1-2.4-2.2-3.6-3.3
		c-0.5-0.5-1.1-0.9-1.6-1.4c-0.1-0.1-0.2-0.1-0.2-0.1c-0.1,0-0.1-0.1-0.2-0.2c-0.6-1.1-1.5-1.9-2.5-2.7c-0.8-0.7-2-0.6-2.8,0.2
		c-3.4,3.2-6.6,6.6-9.9,9.9c-0.1,0.1-0.2,0.2-0.3,0.2c-0.3,0.2-0.4,0.2-0.7,0c-0.3-0.3-0.6-0.6-0.9-0.9c-1.1-1.1-2.2-2.2-3.3-3.3
		c-0.8-0.8-2-0.9-2.9-0.1c-0.7,0.6-1.5,1.3-2,2.1c-0.7,0.9-0.6,2.1,0.2,2.9c2.5,2.6,5,5.1,7.6,7.7c0.3,0.3,0.7,0.5,1,0.8
		c0,0.1,0.1,0.2,0.2,0.3c2.9,2.8,5.7,5.7,8.6,8.5c0.2,0.2,0.3,0.3,0.2,0.6c-0.5,0.3-1.1,0.4-1.6,0.4C27.9,44.9,27.3,44.9,26.6,44.9z
		"/>
	<path class="st1" d="M38.2,18.4c0.1-0.2,0.1,0,0.2,0c0.9,0.8,1.9,1.7,2.8,2.5c1.2,1.1,2.3,2.2,3.5,3.3c0.1,0.1,0.2,0.2,0.3,0.1
		c0,0.4,0,0.7,0,1.1c-0.1,0.2-0.1,0.4,0,0.5c0,0.2,0,0.5,0,0.7c-0.1,0.6-0.1,1.2-0.1,1.7c-0.2,1.4-0.6,2.8-1.1,4.1
		c-0.9,2.3-2.3,4.4-4,6.2c-2.4,2.6-5.4,4.4-8.7,5.5c-0.2,0.1-0.5,0.3-0.8,0c-0.1-0.1-0.2-0.3-0.4-0.4c-2.8-2.8-5.6-5.6-8.4-8.4
		c-0.1-0.1-0.3-0.2-0.2-0.4c0.1-0.2,0.3-0.1,0.5-0.1c0.8,0.2,1.5-0.1,2.1-0.6c4.6-4.6,9.1-9.1,13.7-13.7c0.5-0.5,0.8-1.1,0.7-1.9
		C38,18.6,38,18.5,38.2,18.4z"/>
	<path class="st2" d="M24.2,44.9c0.2-0.1,0.4-0.1,0.6,0C24.6,44.9,24.4,44.9,24.2,44.9z"/>
	<path class="st3" d="M44.9,26c-0.1-0.2-0.1-0.4,0-0.5C44.9,25.6,44.9,25.8,44.9,26z"/>
	<path class="st2" d="M25.3,44.9c0.2-0.1,0.4-0.1,0.5,0C25.6,44.9,25.5,44.9,25.3,44.9z"/>
	<path class="st4" d="M44.9,23.9c-0.1-0.1-0.1-0.1,0-0.2C44.9,23.8,44.9,23.8,44.9,23.9z"/>
	<path class="st5" d="M38.2,18.4c0.2,1-0.1,1.8-0.9,2.6c-3.7,3.6-7.3,7.3-11,10.9c-0.8,0.8-1.6,1.6-2.3,2.4
		c-0.8,0.9-1.7,1.2-2.9,0.8c-0.4-0.2-0.8-0.6-1.1-0.9c-2.5-2.5-4.9-4.9-7.4-7.4c-1.1-1.1-1.1-2.5,0-3.6c0.5-0.5,1-1,1.5-1.5
		c1.1-1.1,2.5-1.1,3.6,0c1.4,1.4,2.7,2.7,4,4.1c0.2,0.2,0.4,0.3,0.6,0c3.3-3.3,6.6-6.6,10-9.9c0.9-0.9,2-1.1,3-0.5
		c0.2,0.1,0.4,0.3,0.6,0.5c0.5,0.5,1,1,1.5,1.5C37.8,17.6,38,18,38.2,18.4z"/>
</g>
</svg>
