<svg xmlns="http://www.w3.org/2000/svg" width="204.1" height="65.3" viewBox="0 0 204.1 65.3">
  <g id="lee.logo" transform="translate(-21.3 -20.8)">
    <path id="Path_37" data-name="Path 37" d="M50,41.3l-.6.6a45.6,45.6,0,0,0-3,3.9,116.6,116.6,0,0,0-6.9,11.5A36.821,36.821,0,0,0,36.9,63a1.854,1.854,0,0,0-.2.7l-.2.3-.1.7,1.2.2.2-.5a145.567,145.567,0,0,1,12.8-22l.3-.4Z"/>
    <path id="Path_38" data-name="Path 38" d="M68.6,69a2.645,2.645,0,0,1-.9,0c-.6-.1-.7-.5-1.3-.6a1.973,1.973,0,0,0-1.1,0h-.4c-.6.1-1.3.2-2,.3-.3.1-.5.1-.8.2-1.6.4-3.2.9-4.8,1.4l-1.2.4a4.1,4.1,0,0,0-.1-1.1,2.437,2.437,0,0,0-2.6-1.9h-.2a2.769,2.769,0,0,0-.9.1,2.269,2.269,0,0,0-.4.1,17.233,17.233,0,0,0-2.1.7A44.815,44.815,0,0,0,44,71.5l-.4.2c-.8.5-1.7,1-2.5,1.5H41c-2.7,1.6-5.5,3.2-8.4,4.6q-1.5.75-3.3,1.5l.9-1.2a1.943,1.943,0,0,1,1.1-.9,1.934,1.934,0,0,0,.9-.5l.1-.1a43.406,43.406,0,0,0,9.3-7.3,72.12,72.12,0,0,0,7-8.7,136.2,136.2,0,0,0,9-14.6,87.684,87.684,0,0,0,6.3-14.9,28.749,28.749,0,0,0,1.4-7.4v-.4l-.1-2.5-1.2.6s-1.5.7-1.6.8a33.9,33.9,0,0,0-5.3,3.4A64.86,64.86,0,0,0,46.4,36a82.8,82.8,0,0,0-7.3,10A71.442,71.442,0,0,0,31,62.5a25.253,25.253,0,0,0-1.5,7.8,7.569,7.569,0,0,0,.1,1.5v.6l.1,1-.2.1a19.786,19.786,0,0,0-3.1,2.9,20.311,20.311,0,0,0-2.8,4.2L22.7,83a29.173,29.173,0,0,0-1.4,3.1L24.4,85l.3-.1c.1-.1.3-.1.4-.2a10.26,10.26,0,0,0,1.4-.4,27.584,27.584,0,0,0,2.7-.8,69.189,69.189,0,0,0,9-4c1.5-.8,3-1.6,4.6-2.5,1.9-1,3.9-2.1,5.8-3.1.5-.3,1.1-.5,1.7-.8a4.875,4.875,0,0,0-.3.7,1.982,1.982,0,0,0,.4,2.2,2.268,2.268,0,0,0,1.8.7,1.7,1.7,0,0,0,.7-.1c.4-.1.8-.2,1.1-.3.6-.2,1.2-.5,1.8-.7l2.8-1.1c1-.4,2-.8,3-1.1a13.046,13.046,0,0,1,1.3-.3c.6-.2,1.2-.3,1.5-.4a8.65,8.65,0,0,0,1,.7,6.789,6.789,0,0,0,3.5.8H86.2V69.1h-11V58.2h9V53.1h-9V43.2H86.5V38.1H68.6ZM33.2,69a39.316,39.316,0,0,1,4.1-10.9A104.307,104.307,0,0,1,52.2,36.5a86.047,86.047,0,0,1,7.4-7.4A40.659,40.659,0,0,1,57.2,35c0,.1-.1.2-.3.5s-.4.8-.7,1.4a45.381,45.381,0,0,0-2.1,4.5c-1,2-2,3.9-3,5.9A82.135,82.135,0,0,1,40.6,63.6a54.263,54.263,0,0,1-4.8,5A34.467,34.467,0,0,1,33,70.9,11.076,11.076,0,0,1,33.2,69Z"/>
    <path id="Path_39" data-name="Path 39" d="M91.4,73.7h17.9v-5H98V58.2h9v-5H98v-10h11.3v-5H91.4Z"/>
    <path id="Path_40" data-name="Path 40" d="M143,66.4l-3.2-28.2h-6.4l-3.1,28-3.6-28h-6.4L125,73.7h9l2.4-18.9,2.4,18.9h8.7l4.7-35.5h-5.8Z"/>
    <path id="Path_41" data-name="Path 41" d="M165.7,37.8c-6.5,0-10,3.3-10,8.9V65.2c0,5.7,3.5,8.9,10,8.9s10-3.3,10-8.9V46.7C175.7,41,172.1,37.8,165.7,37.8Zm3.4,27.8c0,2.5-1.3,3.5-3.4,3.5s-3.4-1-3.4-3.5V46.3c0-2.5,1.3-3.5,3.4-3.5s3.4,1,3.4,3.5Z"/>
    <path id="Path_42" data-name="Path 42" d="M190.1,37.8c-6.5,0-10,3.3-10,8.9V65.2c0,5.7,3.5,8.9,10,8.9s10-3.3,10-8.9V46.7C200.1,41,196.6,37.8,190.1,37.8Zm3.5,27.8c0,2.5-1.3,3.5-3.4,3.5s-3.4-1-3.4-3.5V46.3c0-2.5,1.3-3.5,3.4-3.5s3.4,1,3.4,3.5Z"/>
    <path id="Path_43" data-name="Path 43" d="M215.6,38.2H205.2V73.8h10.4c6.6,0,9.8-3.1,9.8-8.8V47C225.3,41.3,222.1,38.2,215.6,38.2Zm3.2,27c0,2.5-1.3,3.5-3.3,3.5h-3.7V43.2h3.7c2.1,0,3.3.9,3.3,3.5Z"/>
  </g>
</svg>
