<?xml version="1.0" encoding="utf-8"?>
<!-- Generator: Adobe Illustrator 24.0.3, SVG Export Plug-In . SVG Version: 6.00 Build 0)  -->
<svg version="1.1" id="Layer_1" xmlns="http://www.w3.org/2000/svg" xmlns:xlink="http://www.w3.org/1999/xlink" x="0px" y="0px"
	 viewBox="0 0 50 50" style="enable-background:new 0 0 50 50;" xml:space="preserve">
<style type="text/css">
	.st0{fill:#E52521;}
	.st1{fill:#FFFFFF;}
</style>
<g>
	<path class="st0" d="M5,40.1c0-0.4,0-0.8,0-1.2c0.3-2.4,1.8-4.3,2.9-6.3c4.3-7.6,8.7-15.2,13.1-22.7c0.3-0.5,0.6-1,1-1.4
		c1.8-2.1,4.5-2.1,6.2,0.2c0.5,0.7,0.9,1.4,1.3,2.1c4.9,8.4,9.7,16.8,14.6,25.2c0.6,1,0.8,2,1,3.1c0,0.4,0,0.8,0,1.2
		c-0.7,2.2-1.6,2.8-3.9,2.9c-9.3,0.4-18.7,0.1-28,0.2c-1.6,0-3.3-0.2-4.9-0.2C6.4,43,5.4,42,5,40.1z"/>
	<path class="st1" d="M25,30.2c-0.1,0-0.2,0-0.4,0c-0.9,0.2-1.1-0.3-1.2-1.1c-0.3-2.9-0.8-5.7-1.3-8.5c-0.1-0.6-0.2-1.2,0-1.9
		c0.4-1.6,1.7-2.5,3.3-2.3c1.5,0.2,2.5,1.4,2.5,2.9c0,1.5-0.4,3-0.6,4.5c-0.2,1.8-0.6,3.6-0.8,5.4c-0.1,0.8-0.3,1.1-1.1,1
		C25.3,30.2,25.2,30.2,25,30.2C25,30.2,25,30.2,25,30.2z"/>
	<path class="st1" d="M25,38c-1.7,0-3-1.3-2.9-2.9c0-1.7,1.3-2.9,3-2.9c1.6,0,2.9,1.3,2.9,3C27.9,36.7,26.7,38,25,38z"/>
</g>
</svg>
