<?xml version="1.0" encoding="utf-8"?>
<!-- Generator: Adobe Illustrator 24.0.3, SVG Export Plug-In . SVG Version: 6.00 Build 0)  -->
<svg version="1.1" id="Layer_1" xmlns="http://www.w3.org/2000/svg" xmlns:xlink="http://www.w3.org/1999/xlink" x="0px" y="0px"
	 viewBox="0 0 50 50" style="enable-background:new 0 0 50 50;" xml:space="preserve">
<style type="text/css">
	.st0{fill:#DBBB1A;}
	.st1{fill:#FBDD4B;}
	.st2{fill:#F8D83F;}
	.st3{fill:#CEAF36;}
	.st4{fill:#EACB2D;}
	.st5{fill:#F4D439;}
	.st6{fill:#FFDF32;}
	.st7{fill:#CEAD0C;}
	.st8{fill:#E7C729;}
	.st9{fill:#FDE569;}
	.st10{fill:#532610;}
	.st11{fill:#FCDF54;}
	.st12{fill:#542610;}
	.st13{fill:#FEEB89;}
	.st14{fill:#FEEF9F;}
	.st15{fill:#FFF9D9;}
	.st16{fill:#FEF3BA;}
</style>
<g>
	<path class="st0" d="M5.8,38.1c0.1-0.3,0.2-0.7,0.4-1c0.3-0.4,0.5-0.9,0.8-1.4c0.1-0.2,0.2-0.4,0.4-0.5c0.5-0.3,1.1-0.3,1.7-0.3
		c5.2,0,10.4,0,15.7,0c5.3,0,10.7,0,16,0c0.5,0,1.1,0,1.6,0.2c0.4,0.2,0.5,0.7,0.8,1c0.4,0.6,0.7,1.2,0.8,1.9
		c0.1,0.2,0.1,0.3-0.2,0.3c-0.4-0.2-0.8-0.3-1.3-0.3c-10.6,0-21.3,0-31.9,0c-1.1,0-2.1,0.1-3.2,0c-0.5,0-1,0.1-1.4,0.3
		C5.8,38.4,5.8,38.3,5.8,38.1z"/>
	<path class="st1" d="M36.6,24.8c0.5,0.7,0.9,1.4,1.2,2.2c0.1,0.6,0.5,1,0.7,1.6c0.1,0.2,0.2,0.3,0.2,0.4c0.3,0.7,0.1,1-0.6,1
		c0,0-0.1,0-0.1,0c-3.9,0-7.7,0-11.6,0c-0.4,0-0.8-0.1-0.9-0.6c0-0.2,0-0.4,0.1-0.6c0.9-2.7,1.3-5.6,1.6-8.4c0-0.2,0-0.5,0.3-0.6
		c0.2,0.4,0.6,0.5,1,0.5c1.2,0,2.4,0,3.6,0c0.8,0,0.8,0,0.8-0.8c0.3-0.4,0.4,0,0.5,0.2c0.6,1,1.1,2,1.7,3
		C35.7,23.4,36,24.2,36.6,24.8z"/>
	<path class="st2" d="M25.7,29.3c0,0.4,0.3,0.5,0.7,0.5c3.9,0,7.9,0,11.8,0c0.7,0,0.7-0.1,0.5-0.7c-0.2-0.5-0.5-1-0.7-1.5
		c-0.1-0.2-0.3-0.4-0.1-0.6c0.9,1.5,1.8,3.1,2.7,4.6c-0.1,0.1-0.2,0.1-0.3,0.1c-0.8-0.3-1.6-0.2-2.5-0.2c-3.9,0-7.8,0-11.8,0
		c-0.1,0,0,0-0.1,0c-1.1-0.3-1.9-0.1-2.7,0.7c-0.4,0.2-0.9,0.2-1.3,0.2c-3.8,0-7.6,0-11.4,0c-0.7,0-1.3,0.1-1.6,0.8
		c-0.1,0.2-0.3,0.4-0.5,0.3c1.3-2.4,2.7-4.8,4-7.1c0.4-0.7,0.8-1.3,1.1-1.9c0.1,0,0.2,0.1,0.2,0.2c-0.2,0.8-0.7,1.4-1,2.2
		c-0.4,1-0.4,0.9,0.7,1c2.9,0.2,5.8,0.1,8.8,0.1c0.4,0,0.8,0,1.1-0.1c0.4-0.1,0.4,0.2,0.5,0.5c0.2,0.5,0.3,1,0.6,1.4
		c0.3,0.6,0.6,0.6,1,0.1C25.4,29.5,25.5,29.3,25.7,29.3z"/>
	<path class="st3" d="M43.8,38.4c0.1-0.1,0.1-0.2,0.1-0.3c0.6,1.7-0.6,3.4-2.3,3.4c-1.3,0-2.5,0-3.8,0c-9.7,0-19.5,0-29.2,0
		c-0.5,0-1.1,0-1.6-0.3c-1.2-0.6-1.7-1.9-1.2-3.1c0,0.1,0,0.2,0.1,0.3c0.2,0.1,0.2,0.4,0.3,0.5c0.4,1,1.2,1.5,2.2,1.6
		c0.2,0,0.4,0,0.6,0c10.5,0,21,0,31.6,0c0.3,0,0.5,0,0.8,0c1-0.1,1.7-0.6,2.1-1.6C43.6,38.8,43.7,38.6,43.8,38.4z"/>
	<path class="st4" d="M8.3,33.4c0.2,0,0.3-0.1,0.3-0.3c0.4-0.8,1-1,1.9-1c3.6,0.1,7.3,0,10.9,0c0.6,0,1.2,0,1.9-0.1
		c0.1,0.6-0.1,1.1-0.2,1.6c-0.3,0.3-0.7,0.2-1,0.2c-3.6,0-7.3,0-10.9,0c-0.8,0-1.5,0.1-2.2,0.2c-0.4,0-0.7,0.3-0.9,0.6
		c-0.2,0.3-0.4,0.7-0.8,0.9c-0.3,0.5-0.5,1.2-1,1.6C6.8,35.8,7.6,34.6,8.3,33.4z"/>
	<path class="st5" d="M25.8,31.4c0.2-0.2,0.5-0.1,0.8-0.1c4.2,0,8.4,0,12.7,0c0.5,0,0.8,0.3,1.3,0.4c0.9,1.5,1.8,3.1,2.6,4.6
		c-0.4-0.1-0.3-0.6-0.7-0.7c-0.3-0.3-0.6-0.6-0.7-1c-0.5-1.3-1.4-1.6-2.8-1.6c-3.8,0.1-7.6,0-11.3,0c-0.4,0-0.8,0.1-1.1-0.2
		C26.3,32.3,25.9,31.9,25.8,31.4z"/>
	<path class="st6" d="M13.6,24.5c-0.1-0.1-0.1-0.1-0.2-0.2c0.9-1.8,1.9-3.5,2.9-5.2c2-3.5,4-7,6-10.6c0.5-0.9,1.1-1.5,2.1-1.6
		c1.2-0.1,2,0.4,2.6,1.4c1.6,2.9,3.3,5.8,5,8.6c1.5,2.6,3,5.2,4.5,7.8c-0.3,0.1-0.3-0.2-0.4-0.3c-0.9-1.6-1.8-3.1-2.8-4.7
		c-0.1-0.2-0.1-0.4-0.4-0.5c-0.6-0.6-0.9-1.3-1.3-2c-1.2-2-2.5-4.1-3.6-6.2c-0.2-0.3-0.3-0.6-0.5-0.8c-0.1-0.2-0.2-0.5-0.4-0.7
		c-0.2-0.3-0.3-0.5-0.5-0.8c-1.2-1.3-2.7-1.3-3.9,0c-0.2,0.2-0.3,0.5-0.5,0.8c-0.1,0.2-0.2,0.4-0.4,0.7c-0.2,0.3-0.3,0.6-0.5,0.9
		c-1.2,2.1-2.5,4.2-3.6,6.3c-1.2,2-2.4,4.1-3.6,6.2C14.1,24,14,24.3,13.6,24.5z"/>
	<path class="st7" d="M43.8,38.4c-0.1,1.4-1.1,2.4-2.6,2.4c-2.4,0-4.8,0-7.3,0c-8.5,0-16.9,0-25.4,0c-1.5,0-2.6-0.9-2.7-2.4
		c0-0.3,0.3-0.3,0.5-0.4c1-0.2,2.1,0,3.1,0c11-0.2,22,0,32.9-0.1c0.3,0,0.7,0,1,0.1C43.8,38.1,43.9,38.2,43.8,38.4z"/>
	<path class="st8" d="M26.6,32.5c0.2,0.3,0.5,0.3,0.8,0.3c4.2,0,8.5,0,12.7,0c0.6,0,1,0.2,1.3,0.7c0.4,0.7,0.9,1.3,1.1,2.1
		c-0.4-0.2-0.9-0.3-1.4-0.3c-10.7,0-21.3,0-32,0c-0.6,0-1.2,0.1-1.8,0.3c0.1-0.3,0.3-0.5,0.4-0.8c0.3-0.7,0.8-1,1.7-1
		c4.3-0.2,8.7,0,13-0.1c0.2,0,0.5,0.1,0.7-0.2c0.3,0,0.3,0.3,0.4,0.5c0.4,0.6,0.9,0.9,1.6,0.7c0.6-0.1,1.2-0.7,1.3-1.4
		C26.4,33,26.3,32.7,26.6,32.5z"/>
	<path class="st9" d="M28.3,11.1c1,1.7,2,3.3,3,5c0.6,1.1,1.3,2.1,1.8,3.2c0,0.1,0,0.1,0,0.2c0.2,0.9,0.2,0.9-0.8,0.9
		c-1.4,0-2.7,0-4.1,0c-0.5,0-0.7-0.2-0.7-0.7c-0.2-0.4-0.2-0.8-0.3-1.2c-0.3-1.1-1.1-1.7-2.2-1.8c-1-0.1-1.8,0.4-2.3,1.2
		c-0.1,0.2-0.3,0.5-0.5,0.6c-0.5,0.2-0.9,0.1-1.4,0.1c-0.8,0-1.6,0-2.4,0c-0.9,0-1.1-0.2-0.7-1.1c0-0.1,0.1-0.2,0.1-0.2
		c0.3-0.9,0.9-1.7,1.4-2.6c0.7-1.3,1.5-2.5,2.2-3.8c0.2-0.1,0.5-0.1,0.7-0.1c1.8,0,3.6,0,5.4,0C27.8,11,28.1,11,28.3,11.1z"/>
	<path class="st10" d="M22.3,18.5c0.8-2,2.8-2.3,4.1-1.4c0.9,0.7,1.2,1.6,1.2,2.7c-0.2,1.4-0.4,2.8-0.6,4.2
		c-0.3,1.8-0.7,3.6-1.3,5.4c0,0,0,0-0.1,0c-0.2,0.3-0.3,0.9-0.8,0.8c-0.5,0-0.6-0.5-0.8-0.9c-0.2-0.5-0.4-1-0.6-1.6
		c-0.3-0.1-0.3-0.4-0.4-0.6c-0.5-2-0.7-4.1-0.9-6.1c0-0.5-0.1-1-0.1-1.6C22,19.1,22,18.8,22.3,18.5z"/>
	<path class="st11" d="M22.3,18.5c-0.3,1.4,0.1,2.7,0.2,4.1c0.1,1.5,0.5,3,0.7,4.4c0,0.3,0.2,0.5,0.2,0.7C23.2,28,22.9,28,22.6,28
		c-2.4,0-4.9,0-7.3,0c-0.9,0-1.8-0.1-2.7-0.1c-0.4,0-0.5-0.1-0.3-0.5c0.5-1,0.9-1.9,1.4-2.9c1.3-2.3,2.6-4.6,3.9-6.9
		c0-0.1,0.1-0.1,0.2-0.2c0,0,0,0,0,0.1c-0.2,1.1-0.2,1.1,1,1.1c1,0,1.9,0,2.9,0C21.8,18.6,22.1,18.6,22.3,18.5z"/>
	<path class="st12" d="M26.6,32.5c0.1,0.7,0,1.4-0.6,1.9c-1,0.8-2.1,0.6-2.7-0.5c-0.1-0.1-0.1-0.3-0.2-0.4c-0.1-0.5,0-1,0.2-1.5
		c0.7-0.9,1.5-1,2.5-0.6C26.1,31.7,26.4,32.1,26.6,32.5z"/>
	<path class="st13" d="M28.3,11.1c-0.2,0.1-0.4,0.1-0.6,0.1c-1.9,0-3.8,0-5.7,0c-0.2,0-0.4,0-0.6-0.1c0.2-0.3,0.3-0.6,0.5-0.9
		c1.7,0.1,3.5,0,5.2,0.1c0.2,0,0.5,0,0.7,0.1C28.1,10.5,28.1,10.8,28.3,11.1z"/>
	<path class="st14" d="M27.8,10.3c-0.1,0-0.2,0.1-0.3,0.1c-1.7,0-3.4,0-5.2,0c-0.2,0-0.3-0.1-0.4-0.2c0.1-0.2,0.2-0.5,0.4-0.6
		c1.7-0.1,3.4-0.1,5.1,0C27.6,9.8,27.7,10,27.8,10.3z"/>
	<path class="st15" d="M22.7,8.8c1-1.5,3.2-1.5,4.2,0c-0.2,0.3-0.5,0.3-0.8,0.3c-0.9,0-1.8,0-2.7,0C23.2,9.1,22.9,9.1,22.7,8.8z"/>
	<path class="st16" d="M22.7,8.8C24.1,9,25.6,9,27,8.8c0.2,0.2,0.3,0.5,0.5,0.8c-0.1,0-0.1,0.1-0.2,0.1c-1.6,0-3.2,0-4.8,0
		c-0.1,0-0.1-0.1-0.1-0.1C22.4,9.3,22.5,9,22.7,8.8z"/>
</g>
</svg>
